# File created by Blade
# Date/Time:  Fri Jan 16 19:32:27 2015
#---------------------------------------------------------
:version 1.10
:name HOM
:units
  mass 1.0
  length 1.000000
  angle deg
:documentation
     Acclaim Skeleton File
:root
   axis xyz
   order TX TY TZ RX RY RZ
   position 0.000000 0.000000 0.000000
   orientation 0 0 0
:bonedata
   begin
      id 1
      name Spine_dum
      direction 0.000000 1.000000 0.000000
      length 7.067664
      axis 0.0 0.0 0.0 xyz
   end
   begin
      id 2
      name LeftUpLeg_dum
      direction 1.000000 0.000000 0.000000
      length 4.013002
      axis 0.0 0.0 0.0 xyz
   end
   begin
      id 3
      name RightUpLeg_dum
      direction -1.000000 0.000000 0.000000
      length 4.013002
      axis 0.0 0.0 0.0 xyz
   end
   begin
      id 4
      name Spine
      direction 0.000000 1.000000 0.000000
      length 0.000000
      axis 0.0 0.0 0.0 xyz
      dof rx ry rz
   end
   begin
      id 5
      name Spine_dum1
      direction 0.000000 1.000000 0.000000
      length 15.039886
      axis 0.0 0.0 0.0 xyz
   end
   begin
      id 6
      name Spine_dum2
      direction 0.000000 1.000000 0.000000
      length 10.530368
      axis 0.0 0.0 0.0 xyz
   end
   begin
      id 7
      name Spine_dum3
      direction 0.000000 1.000000 0.000000
      length 10.530368
      axis 0.0 0.0 0.0 xyz
   end
   begin
      id 8
      name Head
      direction 0.000000 1.000000 0.000000
      length 4.527550
      axis 0.0 0.0 0.0 xyz
      dof rx ry rz
   end
   begin
      id 9
      name LeftShoulder
      direction 1.000000 0.000000 0.000000
      length 7.028855
      axis 0.0 0.0 -90.0 xyz
      dof rx ry rz
   end
   begin
      id 10
      name LeftArm
      direction 1.000000 0.000000 0.000000
      length 10.797705
      axis 0.0 0.0 -90.0 xyz
      dof rx ry rz
   end
   begin
      id 11
      name LeftForeArm
      direction 1.000000 0.000000 0.000000
      length 7.907442
      axis 0.0 0.0 -90.0 xyz
      dof ry rz rx
   end
   begin
      id 12
      name LeftHand
      direction 0.000000 0.000000 0.000000
      length 0.000000
      axis 0.0 0.0 -90.0 xyz
      dof rx ry rz
   end
   begin
      id 13
      name LeftHand_dum1
      direction 0.000000 0.000000 0.000000
      length 0.000000
      axis 0.0 0.0 -90.0 xyz
   end
   begin
      id 14
      name LeftHand_dum2
      direction 1.000000 0.000000 0.000000
      length 3.937000
      axis 0.0 0.0 -90.0 xyz
   end
   begin
      id 15
      name LeftHandThumb1
      direction 0.000000 0.000000 1.000000
      length 3.937000
      axis 0.0 0.0 -90.0 xyz
      dof rx rz ry
   end
   begin
      id 16
      name RightShoulder
      direction -1.000000 0.000000 0.000000
      length 7.028855
      axis 0.0 0.0 90.0 xyz
      dof rx ry rz
   end
   begin
      id 17
      name RightArm
      direction -1.000000 0.000000 0.000000
      length 10.797705
      axis 0.0 0.0 90.0 xyz
      dof rx ry rz
   end
   begin
      id 18
      name RightForeArm
      direction -1.000000 0.000000 0.000000
      length 7.907442
      axis 0.0 0.0 90.0 xyz
      dof ry rz rx
   end
   begin
      id 19
      name RightHand
      direction 0.000000 0.000000 0.000000
      length 0.000000
      axis 0.0 0.0 90.0 xyz
      dof rx ry rz
   end
   begin
      id 20
      name RightHand_dum1
      direction 0.000000 0.000000 0.000000
      length 0.000000
      axis 0.0 0.0 90.0 xyz
   end
   begin
      id 21
      name RightHand_dum2
      direction -1.000000 0.000000 0.000000
      length 3.937000
      axis 0.0 0.0 90.0 xyz
   end
   begin
      id 22
      name RightHandThumb1
      direction 0.000000 0.000000 1.000000
      length 3.937000
      axis 0.0 0.0 90.0 xyz
      dof rx rz ry
   end
   begin
      id 23
      name LeftUpLeg
      direction 0.000000 -1.000000 0.000000
      length 16.899758
      axis 0.0 0.0 0.0 xyz
      dof rx ry rz
   end
   begin
      id 24
      name LeftLeg
      direction 0.000000 -1.000000 0.000000
      length 17.389183
      axis 0.0 0.0 0.0 xyz
      dof rx ry rz
   end
   begin
      id 25
      name LeftFoot
      direction 0.000000 -0.258819 0.965926
      length 4.924528
      axis 15.0 0.0 0.0 xyz
      dof rx ry rz
   end
   begin
      id 26
      name LeftToeBase
      direction 0.000000 0.000000 1.000000
      length 2.952750
      axis 0.0 0.0 0.0 xyz
      dof rx ry rz
   end
   begin
      id 27
      name RightUpLeg
      direction 0.000000 -1.000000 0.000000
      length 16.899758
      axis 0.0 0.0 0.0 xyz
      dof rx ry rz
   end
   begin
      id 28
      name RightLeg
      direction 0.000000 -1.000000 0.000000
      length 17.389183
      axis 0.0 0.0 0.0 xyz
      dof rx ry rz
   end
   begin
      id 29
      name RightFoot
      direction 0.000000 -0.258819 0.965926
      length 4.924528
      axis 15.0 0.0 0.0 xyz
      dof rx ry rz
   end
   begin
      id 30
      name RightToeBase
      direction 0.000000 0.000000 1.000000
      length 2.952750
      axis 0.0 0.0 0.0 xyz
      dof rx ry rz
   end
:hierarchy
   begin
      root Spine_dum LeftUpLeg_dum RightUpLeg_dum
      Spine_dum Spine
      LeftUpLeg_dum LeftUpLeg
      RightUpLeg_dum RightUpLeg
      Spine Spine_dum1 Spine_dum2 Spine_dum3
      Spine_dum1 Head
      Spine_dum2 LeftShoulder
      Spine_dum3 RightShoulder
      LeftShoulder LeftArm
      LeftArm LeftForeArm
      LeftForeArm LeftHand
      LeftHand LeftHand_dum1 LeftHand_dum2
      LeftHand_dum1 LeftHandThumb1
      RightShoulder RightArm
      RightArm RightForeArm
      RightForeArm RightHand
      RightHand RightHand_dum1 RightHand_dum2
      RightHand_dum1 RightHandThumb1
      LeftUpLeg LeftLeg
      LeftLeg LeftFoot
      LeftFoot LeftToeBase
      RightUpLeg RightLeg
      RightLeg RightFoot
      RightFoot RightToeBase
   end

# File created by Blade
# Date/Time:  Fri Jan 16 19:32:17 2015
# Frame Rate: 120.000 fps
#------------------------------------------------------
:FULLY-SPECIFIED
:DEGREES
36
root 19.046546 35.437600 -20.610404 10.171320 2.128012 -1.708363
Spine -22.548746 -0.819256 1.062782
Head 5.777266 0.728531 -0.395002
LeftShoulder -13.659570 -29.768686 18.944238
LeftArm 4.162753 4.488263 -9.643060
LeftForeArm 9.562514 -0.000000 -2.642889
LeftHand -7.560632 0.000000 -8.538912
LeftHandThumb1 -26.253704 0.000000 33.147579
RightShoulder -12.466690 -7.577345 -7.843141
RightArm 9.717472 35.641522 14.946192
RightForeArm -37.269130 -0.000000 4.581533
RightHand -5.545439 -0.000000 10.322097
RightHandThumb1 -24.326973 -0.000000 -32.862282
LeftUpLeg -1.014255 8.348268 2.575771
LeftLeg -6.664946 -0.000000 0.000000
LeftFoot -20.809004 27.919633 -12.957447
LeftToeBase 26.838782 -0.000000 -0.000000
RightUpLeg -1.325522 -11.804273 0.679415
RightLeg -4.256218 -0.000000 0.000000
RightFoot -20.943626 -22.036034 16.357512
RightToeBase 25.853683 -0.000000 -0.000000
37
root 19.046182 35.437612 -20.610676 10.173679 2.118260 -1.705756
Spine -22.547250 -0.800605 1.048647
Head 5.765861 0.720512 -0.391772
LeftShoulder -13.660753 -29.746847 18.938696
LeftArm 4.166830 4.440784 -9.650658
LeftForeArm 9.543645 -0.000000 -2.643054
LeftHand -7.551779 -0.000000 -8.559164
LeftHandThumb1 -26.253704 0.000000 33.147579
RightShoulder -12.484913 -7.584681 -7.838686
RightArm 9.722868 35.648096 14.942290
RightForeArm -37.310096 0.000000 4.579278
RightHand -5.518614 0.000000 10.380536
RightHandThumb1 -24.326973 -0.000000 -32.862282
LeftUpLeg -1.015994 8.350468 2.573373
LeftLeg -6.661532 -0.000000 0.000000
LeftFoot -20.819790 27.919016 -12.971676
LeftToeBase 26.862752 -0.000000 -0.000000
RightUpLeg -1.328645 -11.792936 0.675598
RightLeg -4.256300 -0.000000 0.000000
RightFoot -20.946471 -22.035556 16.353852
RightToeBase 25.866185 -0.000000 -0.000000
38
root 19.046095 35.437772 -20.610388 10.173720 2.106794 -1.707703
Spine -22.538209 -0.780219 1.044283
Head 5.740853 0.718497 -0.397601
LeftShoulder -13.680333 -29.748700 18.939598
LeftArm 4.174895 4.411643 -9.660637
LeftForeArm 9.534855 -0.000000 -2.640889
LeftHand -7.516957 -0.000000 -8.571146
LeftHandThumb1 -26.253704 0.000000 33.147579
RightShoulder -12.507987 -7.581993 -7.839324
RightArm 9.724415 35.659901 14.941577
RightForeArm -37.347332 0.000000 4.591198
RightHand -5.503670 0.000000 10.382521
RightHandThumb1 -24.326973 -0.000000 -32.862282
LeftUpLeg -1.015826 8.367223 2.572695
LeftLeg -6.658606 -0.000000 0.000000
LeftFoot -20.815158 27.912536 -12.970787
LeftToeBase 26.822921 -0.000000 -0.000000
RightUpLeg -1.332961 -11.788729 0.676667
RightLeg -4.251508 -0.000000 0.000000
RightFoot -20.951909 -22.028043 16.375815
RightToeBase 25.889982 -0.000000 -0.000000
39
root 19.046018 35.437576 -20.609841 10.172117 2.098296 -1.707379
Spine -22.538115 -0.782495 1.042566
Head 5.743829 0.730761 -0.397017
LeftShoulder -13.697344 -29.725771 18.948940
LeftArm 4.160735 4.377219 -9.668773
LeftForeArm 9.566244 -0.000000 -2.631346
LeftHand -7.534502 -0.000000 -8.587793
LeftHandThumb1 -26.253704 0.000000 33.147579
RightShoulder -12.504295 -7.615728 -7.837208
RightArm 9.743914 35.704297 14.950808
RightForeArm -37.333958 0.000000 4.574954
RightHand -5.508735 0.000000 10.321619
RightHandThumb1 -24.326973 -0.000000 -32.862282
LeftUpLeg -1.011872 8.368758 2.571973
LeftLeg -6.658271 -0.000000 0.000000
LeftFoot -20.822332 27.923279 -12.965421
LeftToeBase 26.829546 -0.000000 -0.000000
RightUpLeg -1.331804 -11.781708 0.674592
RightLeg -4.250531 -0.000000 0.000000
RightFoot -20.941592 -22.028780 16.356410
RightToeBase 25.858997 -0.000000 -0.000000
40
root 19.045491 35.437494 -20.610629 10.171388 2.091381 -1.709965
Spine -22.525283 -0.765613 1.038793
Head 5.722960 0.712987 -0.402156
LeftShoulder -13.731476 -29.761075 18.952130
LeftArm 4.193934 4.401232 -9.667553
LeftForeArm 9.548791 -0.000000 -2.655459
LeftHand -7.523209 -0.000000 -8.567213
LeftHandThumb1 -26.253704 0.000000 33.147579
RightShoulder -12.525603 -7.615215 -7.837773
RightArm 9.749689 35.738533 14.953183
RightForeArm -37.340118 0.000000 4.572188
RightHand -5.489510 0.000000 10.323610
RightHandThumb1 -24.326973 -0.000000 -32.862282
LeftUpLeg -1.013619 8.366923 2.575726
LeftLeg -6.652758 -0.000000 0.000000
LeftFoot -20.833997 27.924806 -12.976646
LeftToeBase 26.815440 -0.000000 -0.000000
RightUpLeg -1.332638 -11.765262 0.675519
RightLeg -4.249678 -0.000000 0.000000
RightFoot -20.954497 -22.030383 16.359504
RightToeBase 25.894034 -0.000000 -0.000000
41
root 19.044917 35.437253 -20.610432 10.165802 2.092322 -1.711248
Spine -22.513303 -0.769361 1.036789
Head 5.709670 0.723352 -0.394084
LeftShoulder -13.753730 -29.752073 18.965552
LeftArm 4.191412 4.366440 -9.687316
LeftForeArm 9.538279 -0.000000 -2.654497
LeftHand -7.554690 -0.000000 -8.532124
LeftHandThumb1 -26.253704 0.000000 33.147579
RightShoulder -12.535911 -7.569399 -7.852671
RightArm 9.750081 35.724419 14.957124
RightForeArm -37.352679 -0.000000 4.568617
RightHand -5.490319 -0.000000 10.329111
RightHandThumb1 -24.326973 -0.000000 -32.862282
LeftUpLeg -1.007601 8.358177 2.579629
LeftLeg -6.654024 -0.000000 0.000000
LeftFoot -20.829260 27.935428 -12.961120
LeftToeBase 26.826074 -0.000000 -0.000000
RightUpLeg -1.329543 -11.784331 0.677304
RightLeg -4.245383 -0.000000 0.000000
RightFoot -20.949217 -22.022763 16.335017
RightToeBase 25.909896 -0.000000 -0.000000
42
root 19.044237 35.437280 -20.609777 10.161346 2.074770 -1.715480
Spine -22.503468 -0.751459 1.035674
Head 5.698395 0.715541 -0.402248
LeftShoulder -13.764997 -29.742879 18.966339
LeftArm 4.182008 4.381149 -9.690338
LeftForeArm 9.543859 -0.000000 -2.646041
LeftHand -7.563171 -0.000000 -8.436204
LeftHandThumb1 -26.253704 0.000000 33.147579
RightShoulder -12.549284 -7.570185 -7.857326
RightArm 9.757759 35.740384 14.959290
RightForeArm -37.353725 0.000000 4.562499
RightHand -5.498991 -0.000000 10.315013
RightHandThumb1 -24.326973 -0.000000 -32.862282
LeftUpLeg -0.996661 8.358664 2.584225
LeftLeg -6.658847 -0.000000 0.000000
LeftFoot -20.838652 27.948768 -12.979630
LeftToeBase 26.850562 -0.000000 -0.000000
RightUpLeg -1.324501 -11.757963 0.678955
RightLeg -4.248782 -0.000000 0.000000
RightFoot -20.946161 -22.032163 16.348091
RightToeBase 25.895009 -0.000000 -0.000000
